<svg xmlns="http://www.w3.org/2000/svg" viewBox="0 0 448 448">
  <path d="M416 0H32C14.3 0 0 14.3 0 32v384c0 17.7 14.3 32 32 32h384c17.7 0 32-14.3 32-32V32c0-17.7-14.3-32-32-32zM128 192c17.7 0 32-14.3 32-32s-14.3-32-32-32-32 14.3-32 32 14.3 32 32 32zm256 160H64V96h320v256zm-16-32H96l50.7-76c1.1-1.7 2.6-3.2 4.4-4.4 7.4-4.9 17.3-3 22.2 4.4l16.2 24.3 16.2-24.3c1.1-1.7 2.6-3.2 4.4-4.4 3.7-2.5 14.6.8 18.6 1.6l7.8-17.2c.9-1.2 8.7-17.2 9.9-18.1 7.1-5.3 17.1-3.9 22.4 3.2l16.7 22.3 16.7-22.3c.9-1.2 2-2.3 3.2-3.2 7.1-5.3 29.2-3 34.4 18.1l28.2 96z"/>
</svg>